<?xml version="1.0" encoding="utf-8"?>
<!-- Generator: Adobe Illustrator 22.0.0, SVG Export Plug-In . SVG Version: 6.00 Build 0)  -->
<svg version="1.1" id="Layer_1" xmlns="http://www.w3.org/2000/svg" xmlns:xlink="http://www.w3.org/1999/xlink" x="0px" y="0px"
	 viewBox="0 0 1267.4 693.7" style="enable-background:new 0 0 1267.4 693.7;" xml:space="preserve">
<style type="text/css">
	.st0{fill:#FFD600;}
</style>
<g>
	<g>
		<path class="st0" d="M167.8,690.7c3,1.2,6,1.8,8.9,1.8c7.7,0,15.5-3.6,20.2-10.7l255.4-369.1c5.4-7.1,6-17.3,1.8-25
			s-12.5-13.1-21.4-13.1l-158.4-1.2l45.8-242.9c2.4-10.7-3.6-22-13.7-26.8c-10.1-4.8-22-1.8-29.2,7.1L6.4,351.9
			c-6,7.1-7.1,17.3-3,25.6c4.2,8.3,12.5,13.7,22,13.7l175,1.2l-47,271.5C151.1,675.2,157.1,686.5,167.8,690.7z M75.5,343l178.6-225
			l-33.3,175.6c-1.2,7.1,0.6,14.3,5.4,20.2c4.8,5.4,11.3,8.9,18.5,8.9l141.1,0.6L219.6,563.9l32.7-191.7c1.2-7.1-0.6-14.3-5.4-19.6
			c-4.2-5.4-10.7-8.3-17.9-8.3L75.5,343L75.5,343z"/>
	</g>
	<g>
		<path class="st0" d="M626.2,526.9h-77.5c-6.3,0-10.9-1.4-13.8-4.2c-2.8-2.8-4.2-7.4-4.2-13.8v-324c0-6.3,1.4-10.9,4.2-13.8
			c2.8-2.8,7.4-4.2,13.8-4.2h77.5c6.3,0,10.9,1.4,13.7,4.2c2.8,2.8,4.2,7.4,4.2,13.8v108.5h83.5V184.9c0-6.3,1.4-10.9,4.2-13.8
			c2.8-2.8,7.4-4.2,13.8-4.2h77.5c6.3,0,10.9,1.4,13.8,4.2c2.8,2.8,4.2,7.4,4.2,13.8v324c0,6.3-1.4,10.9-4.2,13.8
			c-2.8,2.8-7.4,4.2-13.8,4.2h-77.5c-6.3,0-10.9-1.4-13.8-4.2c-2.8-2.8-4.2-7.4-4.2-13.8v-111h-83.5v111c0,6.3-1.4,10.9-4.2,13.8
			C637.1,525.5,632.5,526.9,626.2,526.9z M584.7,481.9h5V349.4h192v132.5h5v-270h-5v132.5h-192V211.9h-5V481.9z"/>
		<path class="st0" d="M1002.7,526.9h-74.5c-6.3,0-10.9-1.4-13.8-4.2c-2.8-2.8-4.2-7.4-4.2-13.8v-324c0-6.3,1.4-10.9,4.2-13.8
			c2.8-2.8,7.4-4.2,13.8-4.2h80.5c5.3,0,9.8,1.2,13.2,3.5c3.5,2.3,6.8,6.2,9.8,11.5l45,81.5c1.7,3,3.1,5.2,4.2,6.5
			c1.2,1.3,2.8,2,4.8,2h4.5c2,0,3.6-0.7,4.8-2c1.2-1.3,2.6-3.5,4.2-6.5l44.5-81.5c3-5.3,6.2-9.2,9.8-11.5c3.5-2.3,7.9-3.5,13.2-3.5
			h81c6.3,0,10.9,1.4,13.8,4.2c2.8,2.8,4.2,7.4,4.2,13.8v324c0,6.3-1.4,10.9-4.2,13.8c-2.8,2.8-7.4,4.2-13.8,4.2h-77
			c-6.3,0-10.9-1.4-13.8-4.2c-2.8-2.8-4.2-7.4-4.2-13.8v-176l-29.5,54.5c-3,5.7-6.6,9.8-10.8,12.2c-4.2,2.5-9.4,3.8-15.8,3.8h-20
			c-6.3,0-11.6-1.2-15.8-3.8c-4.2-2.5-7.8-6.6-10.8-12.2l-29.5-54.5v176c0,6.3-1.4,10.9-4.2,13.8
			C1013.6,525.5,1009,526.9,1002.7,526.9z M1086.2,334.4c-6,0-10.3-1.3-13-4c-2.7-2.7-6.8-8.3-12.5-17l-61-93c-2-3.3-4.3-5.6-7-6.8
			c-2.7-1.2-5.3-1.8-8-1.8h-8.5c-4.3,0-7.6,1.2-9.8,3.8c-2.2,2.5-3.2,6.4-3.2,11.8v254.5h5V227.4c0-2.7,0.5-5.1,1.5-7.2
			c1-2.2,3.2-3.2,6.5-3.2h7.5c2.3,0,4.4,0.3,6.2,1c1.8,0.7,3.8,2.7,5.8,6l61,92c6,9,10.6,15.2,13.8,18.5c3.2,3.3,8.4,5,15.8,5
			c7.3,0,12.6-1.7,15.8-5c3.2-3.3,7.8-9.5,13.8-18.5l61-92c2-3.3,3.8-5.3,5.5-6c1.7-0.7,3.7-1,6-1h7.5c3.3,0,5.6,1.1,6.8,3.2
			c1.2,2.2,1.8,4.6,1.8,7.2v254.5h5V227.4c0-5.3-1.1-9.2-3.2-11.8c-2.2-2.5-5.6-3.8-10.2-3.8h-8.5c-2.7,0-5.2,0.6-7.8,1.8
			c-2.5,1.2-4.8,3.4-6.8,6.8l-61,93c-5.7,8.7-9.8,14.3-12.5,17C1096.5,333.1,1092.2,334.4,1086.2,334.4z"/>
	</g>
</g>
</svg>
